<svg viewBox="0 0 21 21" fill="none" xmlns="http://www.w3.org/2000/svg">
  <g clip-path="url(#clip0_76_530)">
    <path
      fill-rule="evenodd"
      clip-rule="evenodd"
      d="M21 10.5C21 16.299 16.299 21 10.5 21C4.70101 21 0 16.299 0 10.5C0 4.70101 4.70101 0 10.5 0C16.299 0 21 4.70101 21 10.5ZM10.8763 7.75156C9.85499 8.17635 7.81387 9.05555 4.75291 10.3892C4.25585 10.5868 3.99548 10.7802 3.97177 10.9693C3.93171 11.2888 4.33187 11.4146 4.87679 11.586C4.95091 11.6093 5.02771 11.6334 5.10645 11.659C5.64256 11.8333 6.36372 12.0372 6.73863 12.0453C7.0787 12.0526 7.45826 11.9124 7.87731 11.6247C10.7373 9.69413 12.2136 8.71833 12.3063 8.6973C12.3717 8.68246 12.4623 8.6638 12.5237 8.71836C12.5851 8.77293 12.579 8.87628 12.5725 8.904C12.5329 9.073 10.9621 10.5333 10.1492 11.2891C9.89582 11.5247 9.71606 11.6918 9.67932 11.7299C9.597 11.8154 9.51311 11.8963 9.43248 11.974C8.93442 12.4542 8.56092 12.8142 9.45316 13.4022C9.88194 13.6847 10.225 13.9184 10.5673 14.1515C10.9412 14.4061 11.314 14.66 11.7964 14.9762C11.9193 15.0568 12.0367 15.1405 12.151 15.222C12.5861 15.5321 12.9769 15.8107 13.4598 15.7663C13.7403 15.7405 14.0302 15.4767 14.1773 14.6898C14.5252 12.8302 15.2089 8.80115 15.3669 7.14085C15.3808 6.99539 15.3634 6.80922 15.3494 6.7275C15.3354 6.64578 15.3062 6.52934 15.1999 6.44315C15.0741 6.34107 14.8799 6.31954 14.7931 6.32107C14.3981 6.32803 13.7922 6.53871 10.8763 7.75156Z"
      fill="currentColor"
    />
  </g>
  <defs>
    <clipPath id="clip0_76_530">
      <rect width="21" height="21" fill="currentColor" />
    </clipPath>
  </defs>
</svg>
