<svg viewBox="0 0 16 16" fill="none" xmlns="http://www.w3.org/2000/svg">
<g clip-path="url(#clip0_677_521)">
<path d="M7.33203 1.33337C6.97841 1.33337 6.63927 1.47385 6.38922 1.7239C6.13917 1.97395 5.9987 2.31309 5.9987 2.66671V6.00004H2.66536C2.31174 6.00004 1.9726 6.14052 1.72256 6.39056C1.47251 6.64061 1.33203 6.97975 1.33203 7.33337V8.66671C1.33203 9.40004 1.93203 10 2.66536 10H5.9987V13.3334C5.9987 14.0667 6.5987 14.6667 7.33203 14.6667H8.66536C9.01899 14.6667 9.35812 14.5262 9.60817 14.2762C9.85822 14.0261 9.9987 13.687 9.9987 13.3334V10H13.332C13.6857 10 14.0248 9.85956 14.2748 9.60952C14.5249 9.35947 14.6654 9.02033 14.6654 8.66671V7.33337C14.6654 6.97975 14.5249 6.64061 14.2748 6.39056C14.0248 6.14052 13.6857 6.00004 13.332 6.00004H9.9987V2.66671C9.9987 2.31309 9.85822 1.97395 9.60817 1.7239C9.35812 1.47385 9.01899 1.33337 8.66536 1.33337H7.33203Z" stroke="white" stroke-width="1.5" stroke-linecap="round" stroke-linejoin="round"/>
</g>
<defs>
<clipPath id="clip0_677_521">
<rect width="16" height="16" fill="white"/>
</clipPath>
</defs>
</svg>
