<svg width="12" height="12" viewBox="0 0 11 9" fill="none" xmlns="http://www.w3.org/2000/svg">
<path d="M8.60589 0.258504C8.78197 0.0908649 9.01629 -0.00181266 9.25941 2.68692e-05C9.50252 0.00186639 9.73542 0.0980793 9.90895 0.268363C10.0825 0.438648 10.1831 0.669684 10.1895 0.912721C10.1959 1.15576 10.1077 1.39179 9.94339 1.571L4.95589 7.8085C4.87013 7.90088 4.76662 7.97501 4.65155 8.02646C4.53649 8.07792 4.41223 8.10564 4.2862 8.10798C4.16018 8.11031 4.03497 8.0872 3.91808 8.04004C3.80119 7.99288 3.69501 7.92264 3.60589 7.8335L0.298386 4.526C0.206277 4.44018 0.132399 4.33668 0.0811594 4.22168C0.0299194 4.10668 0.00236688 3.98254 0.0001459 3.85666C-0.00207508 3.73078 0.021081 3.60574 0.0682323 3.48901C0.115384 3.37227 0.185564 3.26623 0.274588 3.17721C0.363611 3.08818 0.469653 3.018 0.586389 2.97085C0.703124 2.9237 0.82816 2.90054 0.954039 2.90276C1.07992 2.90498 1.20406 2.93254 1.31906 2.98378C1.43406 3.03502 1.53756 3.1089 1.62339 3.201L4.24089 5.81725L8.58214 0.286004L8.60589 0.258504Z" fill="currentColor"/>
</svg>
