<svg width="14" height="14" viewBox="0 0 14 14" fill="none" xmlns="http://www.w3.org/2000/svg">
<g clip-path="url(#clip0_648_6826)">
<path d="M12.8346 6.99996C12.8346 8.15368 12.4925 9.2815 11.8515 10.2408C11.2106 11.2001 10.2995 11.9477 9.23362 12.3893C8.16772 12.8308 6.99483 12.9463 5.86328 12.7212C4.73172 12.4961 3.69232 11.9406 2.87652 11.1247C2.06071 10.3089 1.50514 9.26954 1.28006 8.13799C1.05498 7.00643 1.1705 5.83354 1.61201 4.76764C2.05352 3.70174 2.80119 2.79069 3.76048 2.14972C4.71976 1.50875 5.84758 1.16663 7.0013 1.16663M12.8346 1.16663L7.0013 6.99996M12.8346 1.16663H9.33464M12.8346 1.16663V4.66663" stroke="white" stroke-width="1.5" stroke-linecap="round" stroke-linejoin="round"/>
</g>
<defs>
<clipPath id="clip0_648_6826">
<rect width="14" height="14" fill="white"/>
</clipPath>
</defs>
</svg>
