<svg width="16" height="17" viewBox="0 0 16 17" fill="none" xmlns="http://www.w3.org/2000/svg">
<path d="M10.668 2.83329H12.0013C12.3549 2.83329 12.6941 2.98255 12.9441 3.24822C13.1942 3.5139 13.3346 3.87424 13.3346 4.24996V14.1666C13.3346 14.5424 13.1942 14.9027 12.9441 15.1684C12.6941 15.434 12.3549 15.5833 12.0013 15.5833H4.0013C3.64768 15.5833 3.30854 15.434 3.05849 15.1684C2.80844 14.9027 2.66797 14.5424 2.66797 14.1666V4.24996C2.66797 3.87424 2.80844 3.5139 3.05849 3.24822C3.30854 2.98255 3.64768 2.83329 4.0013 2.83329H5.33464M6.0013 1.41663H10.0013C10.3695 1.41663 10.668 1.73376 10.668 2.12496V3.54163C10.668 3.93283 10.3695 4.24996 10.0013 4.24996H6.0013C5.63311 4.24996 5.33464 3.93283 5.33464 3.54163V2.12496C5.33464 1.73376 5.63311 1.41663 6.0013 1.41663Z" stroke="#1D1D1D" stroke-width="1.5" stroke-linecap="round" stroke-linejoin="round"/>
</svg>
